<?xml version="1.0" encoding="UTF-8"?>
<svg xmlns="http://www.w3.org/2000/svg" xmlns:xlink="http://www.w3.org/1999/xlink" width="375pt" height="374.999991pt" viewBox="0 0 375 374.999991" version="1.2">
<defs>
<clipPath id="clip1">
  <path d="M 0 55.546875 L 375 55.546875 L 375 319.546875 L 0 319.546875 Z M 0 55.546875 "/>
</clipPath>
</defs>
<g id="surface1">
<g clip-path="url(#clip1)" clip-rule="nonzero">
<path style=" stroke:none;fill-rule:nonzero;fill:rgb(91.369629%,11.369324%,0%);fill-opacity:1;" d="M 371.253906 112.550781 C 371.253906 112.550781 367.582031 86.6875 356.347656 75.296875 C 342.105469 60.34375 326.097656 60.269531 318.789062 59.386719 C 266.289062 55.605469 187.574219 55.605469 187.574219 55.605469 L 187.425781 55.605469 C 187.425781 55.605469 108.710938 55.605469 56.210938 59.386719 C 48.902344 60.269531 32.894531 60.34375 18.652344 75.296875 C 7.417969 86.6875 3.746094 112.550781 3.746094 112.550781 C 3.746094 112.550781 0 142.898438 0 173.285156 L 0 201.757812 C 0 232.140625 3.746094 262.488281 3.746094 262.488281 C 3.746094 262.488281 7.417969 288.355469 18.652344 299.742188 C 32.933594 314.695312 51.65625 314.21875 59.992188 315.800781 C 89.988281 318.664062 187.5 319.582031 187.5 319.582031 C 187.5 319.582031 266.289062 319.472656 318.789062 315.652344 C 326.132812 314.769531 342.105469 314.695312 356.347656 299.742188 C 367.582031 288.355469 371.253906 262.488281 371.253906 262.488281 C 371.253906 262.488281 375 232.105469 375 201.757812 L 375 173.285156 C 375 142.898438 371.253906 112.550781 371.253906 112.550781 Z M 148.765625 236.257812 L 148.765625 130.8125 L 250.097656 183.71875 Z M 148.765625 236.257812 "/>
</g>
<path style=" stroke:none;fill-rule:nonzero;fill:rgb(100%,100%,100%);fill-opacity:1;" d="M 148.765625 130.8125 L 148.765625 236.257812 L 250.097656 183.71875 Z M 148.765625 130.8125 "/>
</g>
</svg>
